<svg xmlns="http://www.w3.org/2000/svg" version="1.0" width="736.000000pt" height="736.000000pt" viewBox="0 0 736.000000 736.000000" preserveAspectRatio="xMidYMid meet">

<g transform="translate(0.000000,736.000000) scale(0.100000,-0.100000)" fill="#000000" stroke="none">
<path d="M1734 5116 c9 -98 29 -163 66 -214 60 -83 -28 -76 1085 -82 l990 -6 75 -22 c150 -46 295 -131 421 -249 106 -100 169 -186 234 -318 88 -179 100 -239 99 -495 -2 -353 -44 -531 -164 -711 -84 -125 -247 -264 -432 -368 -32 -18 -58 -34 -58 -35 0 -7 221 36 310 60 562 152 840 484 879 1050 55 804 -416 1370 -1211 1454 -55 6 -551 10 -1197 10 l-1104 0 7 -74z"/>
<path d="M2220 4652 c0 -49 29 -127 56 -153 25 -23 32 -24 201 -29 l175 -5 23 -29 c12 -15 28 -45 34 -66 15 -51 16 -1828 0 -1883 -5 -21 -23 -52 -39 -70 l-28 -32 -169 -5 c-92 -3 -175 -9 -184 -13 -27 -13 -58 -81 -65 -140 l-7 -57 860 0 c518 0 912 4 994 11 942 74 1463 519 1550 1324 13 126 6 313 -16 424 -44 222 -157 448 -301 606 -51 56 -52 55 -8 -30 135 -259 177 -672 103 -1014 -121 -558 -530 -929 -1164 -1056 -194 -39 -315 -49 -593 -49 l-264 -1 -28 31 c-16 19 -32 53 -39 83 -8 36 -11 328 -11 935 0 975 -1 958 61 1010 30 25 34 26 184 26 97 0 164 4 180 12 38 17 66 70 72 138 l6 60 -792 0 -791 0 0 -28z"/>
</g>
</svg>